<svg xmlns="http://www.w3.org/2000/svg" viewBox="0 0 24 24" fill="currentColor" width="24" height="24">
  <path d="M12 7C6.48 7 2.75 10.27 1.33 14.5C1.11 15.12 1.11 15.88 1.33 16.5C2.75 20.73 6.48 24 12 24C17.52 24 21.25 20.73 22.67 16.5C22.89 15.88 22.89 15.12 22.67 14.5C21.25 10.27 17.52 7 12 7ZM2.81 14C3.97 11.29 7.62 9 12 9C16.38 9 20.03 11.29 21.19 14C20.03 16.71 16.38 19 12 19C7.62 19 3.97 16.71 2.81 14ZM12 17C10.34 17 9 15.66 9 14C9 12.34 10.34 11 12 11C13.66 11 15 12.34 15 14C15 15.66 13.66 17 12 17Z"/>
</svg>
