<svg xmlns="http://www.w3.org/2000/svg" viewBox="0 0 24 24" fill="currentColor" width="24" height="24">
  <path d="M12 4C6.48 4 2.75 7.27 1.33 11.5C1.11 12.12 1.11 12.88 1.33 13.5C2.75 17.73 6.48 21 12 21C17.52 21 21.25 17.73 22.67 13.5C22.89 12.88 22.89 12.12 22.67 11.5C21.25 7.27 17.52 4 12 4ZM12 19C7.59 19 4.43 16.51 3.29 13C4.43 9.49 7.59 7 12 7C16.41 7 19.57 9.49 20.71 13C19.57 16.51 16.41 19 12 19ZM12 9C10.34 9 9 10.34 9 12C9 13.66 10.34 15 12 15C13.66 15 15 13.66 15 12C15 10.34 13.66 9 12 9ZM12 13C11.45 13 11 12.55 11 12C11 11.45 11.45 11 12 11C12.55 11 13 11.45 13 12C13 12.55 12.55 13 12 13Z"/>
</svg>
